<svg width="500" height="500" viewBox="0 0 500 500" fill="none" xmlns="http://www.w3.org/2000/svg">
<rect width="500" height="500" fill="#4846DC"/>
<path d="M180.59 211.66L141.618 226.416V152.873L231.14 78.7248H358.325V151.569H318.506V119.246H244.959L180.59 170.524V211.66Z" fill="white"/>
<path d="M319.465 289.611L358.325 272.983V344.683L265.835 421.275H142.439V348.431H181.072V380.754H252.427L319.465 325.71V289.611Z" fill="white"/>
<path fill-rule="evenodd" clip-rule="evenodd" d="M249.174 180.132L141.618 222.691V277.242L249.174 324.056L358.382 276.803V222.251L249.174 180.132ZM249.278 215.89L180.793 242.991V260.612L249.278 290.493L319.151 260.612V243.905L249.278 215.89Z" fill="white"/>
<path d="M276.859 235.444C276.859 239.16 276.503 241.512 275.076 244.945C273.648 248.378 271.556 251.498 268.918 254.125C266.281 256.753 263.149 258.837 259.703 260.259C256.256 261.681 252.563 262.413 248.832 262.413C245.102 262.413 241.408 261.681 237.962 260.259C234.516 258.837 231.384 256.753 228.746 254.125C226.109 251.498 224.016 248.378 222.589 244.945C221.161 241.512 220.941 239.16 220.941 235.444L248.832 224.714L276.859 235.444Z" fill="white"/>
</svg>
