<svg width="500" height="500" viewBox="0 0 500 500" fill="none" xmlns="http://www.w3.org/2000/svg">
<path d="M159.717 200.131L109.027 219.325V123.667L225.468 27.2211H390.899V121.971H339.107V79.9274H243.443L159.717 146.624V200.131Z" fill="#4846DC"/>
<path d="M340.354 301.523L390.899 279.894V373.155L270.597 472.779H110.095V378.029H160.344V420.073H253.157L340.354 348.477V301.523Z" fill="#4846DC"/>
<path fill-rule="evenodd" clip-rule="evenodd" d="M248.925 159.123L109.027 214.479V285.435L248.925 346.326L390.973 284.863V213.907L248.925 159.123ZM249.06 205.633L159.981 240.883V263.803L249.06 302.67L339.945 263.803V242.073L249.06 205.633Z" fill="#4846DC"/>
<path d="M284.936 231.068C284.936 235.901 284.473 238.96 282.616 243.425C280.76 247.891 278.038 251.948 274.607 255.366C271.176 258.784 267.103 261.495 262.62 263.344C258.138 265.194 253.333 266.146 248.481 266.146C243.629 266.146 238.825 265.194 234.342 263.344C229.859 261.495 225.786 258.784 222.355 255.366C218.924 251.948 216.203 247.891 214.346 243.425C212.489 238.96 212.203 235.901 212.203 231.068L248.481 217.111L284.936 231.068Z" fill="#4846DC"/>
</svg>
