<svg width="666" height="1001" viewBox="0 0 666 1001" fill="none" xmlns="http://www.w3.org/2000/svg">
<path d="M0.867188 0.264954H668.04V1001.56H0.867188V0.264954Z" fill="#4846DC"/>
<g opacity="0.05">
<path d="M137.544 392.149L26.9863 434.01V225.377L280.948 15.0262H641.758V221.678H528.798V129.98H320.152L137.544 275.449V392.149Z" fill="white"/>
<path d="M531.518 613.287L641.758 566.114V769.518L379.375 986.801H29.3163V780.149H138.911V871.847H341.339L531.518 715.695V613.287Z" fill="white"/>
<path d="M26.9863 423.44L332.109 302.708L641.92 422.194V576.951L332.109 711.003L26.9863 578.197V423.44Z" fill="white"/>
<path d="M138.121 481.029L332.405 404.147L530.626 483.623V531.018L332.405 615.788L138.121 531.018V481.029Z" fill="#4846DC"/>
<path d="M410.648 459.621C410.648 470.163 409.639 476.834 405.589 486.573C401.539 496.313 395.603 505.162 388.12 512.616C380.638 520.07 371.754 525.983 361.977 530.018C352.2 534.052 341.721 536.128 331.139 536.128C320.557 536.128 310.078 534.052 300.301 530.018C290.524 525.983 281.64 520.07 274.157 512.616C266.675 505.162 260.739 496.313 256.689 486.573C252.639 476.834 252.016 470.163 252.016 459.621L331.139 429.181L410.648 459.621Z" fill="white"/>
</g>
</svg>
