<svg width="682" height="1117" viewBox="0 0 682 1117" fill="none" xmlns="http://www.w3.org/2000/svg">
<rect x="0.377441" width="681.623" height="1117" fill="#4846DC"/>
<g opacity="0.1">
<path d="M123.649 438.096L1.25977 484.436V253.477L282.399 20.6158H681.821V249.382H556.772V147.872H325.799L123.649 308.907V438.096Z" fill="white"/>
<path d="M559.783 682.899L681.82 630.678V855.849L391.359 1096.38H3.83881V867.618H125.162V969.128H349.253L559.783 796.266V682.899Z" fill="white"/>
<path d="M1.25977 472.736L339.035 339.083L682 471.356V642.674L339.035 791.072L1.25977 644.054V472.736Z" fill="white"/>
<path d="M124.288 536.487L339.363 451.378L558.796 539.36V591.826L339.363 685.668L124.288 591.826V536.487Z" fill="#4846DC"/>
<path d="M425.979 512.789C425.979 524.459 424.862 531.844 420.379 542.625C415.896 553.407 409.325 563.203 401.041 571.455C392.757 579.707 382.923 586.253 372.1 590.718C361.277 595.184 349.677 597.483 337.962 597.483C326.247 597.483 314.647 595.184 303.823 590.718C293 586.253 283.166 579.707 274.882 571.455C266.599 563.203 260.028 553.407 255.545 542.625C251.062 531.844 250.371 524.459 250.371 512.789L337.962 479.091L425.979 512.789Z" fill="white"/>
</g>
<path d="M103.176 538.585L119.496 493.785H130.504L146.824 538.585H136.648L124.936 504.601L113.224 538.585H103.176ZM110.28 528.793L112.84 521.369H136.328L138.824 528.793H110.28ZM150.452 538.585V493.785H166.004C171.209 493.785 175.497 494.724 178.868 496.601C182.281 498.436 184.798 501.039 186.42 504.409C188.084 507.737 188.916 511.663 188.916 516.185C188.916 520.665 188.084 524.591 186.42 527.961C184.798 531.289 182.281 533.892 178.868 535.769C175.497 537.647 171.209 538.585 166.004 538.585H150.452ZM160.052 530.329H165.428C168.884 530.329 171.614 529.775 173.62 528.665C175.625 527.513 177.033 525.892 177.844 523.801C178.697 521.668 179.124 519.129 179.124 516.185C179.124 513.199 178.697 510.66 177.844 508.569C177.033 506.436 175.625 504.815 173.62 503.705C171.614 502.553 168.884 501.977 165.428 501.977H160.052V530.329ZM194.157 538.585V493.785H209.709C214.914 493.785 219.202 494.724 222.573 496.601C225.986 498.436 228.503 501.039 230.125 504.409C231.789 507.737 232.621 511.663 232.621 516.185C232.621 520.665 231.789 524.591 230.125 527.961C228.503 531.289 225.986 533.892 222.573 535.769C219.202 537.647 214.914 538.585 209.709 538.585H194.157ZM203.757 530.329H209.133C212.589 530.329 215.319 529.775 217.325 528.665C219.33 527.513 220.738 525.892 221.549 523.801C222.402 521.668 222.829 519.129 222.829 516.185C222.829 513.199 222.402 510.66 221.549 508.569C220.738 506.436 219.33 504.815 217.325 503.705C215.319 502.553 212.589 501.977 209.133 501.977H203.757V530.329ZM237.862 538.585V493.785H255.27C258.896 493.785 261.904 494.425 264.294 495.705C266.726 496.943 268.518 498.607 269.67 500.697C270.864 502.788 271.462 505.113 271.462 507.673C271.462 510.063 270.886 512.303 269.734 514.393C268.624 516.484 266.875 518.169 264.486 519.449C262.096 520.729 259.003 521.369 255.206 521.369H247.462V538.585H237.862ZM260.966 538.585L251.942 519.001H262.246L271.846 538.585H260.966ZM247.462 514.457H254.694C257.083 514.457 258.832 513.881 259.942 512.729C261.094 511.577 261.67 510.02 261.67 508.057C261.67 506.137 261.094 504.623 259.942 503.513C258.832 502.361 257.083 501.785 254.694 501.785H247.462V514.457ZM276.942 538.585V493.785H306.958V501.529H286.542V512.089H305.038V519.513H286.542V530.841H306.958V538.585H276.942ZM328.391 539.353C325.191 539.353 322.289 538.82 319.687 537.753C317.127 536.644 315.1 535.023 313.607 532.889C312.113 530.756 311.303 528.132 311.175 525.017H321.415C321.457 526.255 321.777 527.343 322.375 528.281C322.972 529.22 323.783 529.967 324.807 530.521C325.831 531.033 327.025 531.289 328.391 531.289C329.543 531.289 330.545 531.119 331.399 530.777C332.295 530.393 332.999 529.86 333.511 529.177C334.023 528.452 334.279 527.556 334.279 526.489C334.279 525.38 333.98 524.441 333.383 523.673C332.785 522.863 331.975 522.18 330.951 521.625C329.927 521.028 328.732 520.495 327.367 520.025C326.044 519.513 324.615 519.023 323.079 518.553C319.537 517.401 316.807 515.844 314.887 513.881C313.009 511.919 312.071 509.295 312.071 506.009C312.071 503.279 312.732 500.953 314.055 499.033C315.42 497.071 317.276 495.577 319.623 494.553C321.969 493.529 324.636 493.017 327.623 493.017C330.695 493.017 333.404 493.551 335.751 494.617C338.097 495.641 339.953 497.156 341.319 499.161C342.684 501.124 343.409 503.471 343.495 506.201H333.191C333.148 505.263 332.871 504.409 332.359 503.641C331.889 502.873 331.228 502.255 330.375 501.785C329.564 501.316 328.604 501.081 327.495 501.081C326.513 501.039 325.617 501.188 324.807 501.529C324.039 501.828 323.399 502.319 322.887 503.001C322.417 503.641 322.183 504.452 322.183 505.433C322.183 506.372 322.417 507.204 322.887 507.929C323.399 508.612 324.081 509.209 324.935 509.721C325.831 510.191 326.855 510.639 328.007 511.065C329.201 511.492 330.503 511.919 331.911 512.345C334.172 513.113 336.241 514.031 338.119 515.097C340.039 516.121 341.575 517.487 342.727 519.193C343.921 520.857 344.519 523.076 344.519 525.849C344.519 528.281 343.879 530.521 342.599 532.569C341.361 534.617 339.548 536.26 337.159 537.497C334.812 538.735 331.889 539.353 328.391 539.353ZM365.596 539.353C362.396 539.353 359.494 538.82 356.892 537.753C354.332 536.644 352.305 535.023 350.812 532.889C349.318 530.756 348.508 528.132 348.38 525.017H358.62C358.662 526.255 358.982 527.343 359.58 528.281C360.177 529.22 360.988 529.967 362.012 530.521C363.036 531.033 364.23 531.289 365.596 531.289C366.748 531.289 367.75 531.119 368.604 530.777C369.5 530.393 370.204 529.86 370.716 529.177C371.228 528.452 371.484 527.556 371.484 526.489C371.484 525.38 371.185 524.441 370.588 523.673C369.99 522.863 369.18 522.18 368.156 521.625C367.132 521.028 365.937 520.495 364.572 520.025C363.249 519.513 361.82 519.023 360.284 518.553C356.742 517.401 354.012 515.844 352.092 513.881C350.214 511.919 349.276 509.295 349.276 506.009C349.276 503.279 349.937 500.953 351.26 499.033C352.625 497.071 354.481 495.577 356.828 494.553C359.174 493.529 361.841 493.017 364.828 493.017C367.9 493.017 370.609 493.551 372.956 494.617C375.302 495.641 377.158 497.156 378.524 499.161C379.889 501.124 380.614 503.471 380.7 506.201H370.396C370.353 505.263 370.076 504.409 369.564 503.641C369.094 502.873 368.433 502.255 367.58 501.785C366.769 501.316 365.809 501.081 364.7 501.081C363.718 501.039 362.822 501.188 362.012 501.529C361.244 501.828 360.604 502.319 360.092 503.001C359.622 503.641 359.388 504.452 359.388 505.433C359.388 506.372 359.622 507.204 360.092 507.929C360.604 508.612 361.286 509.209 362.14 509.721C363.036 510.191 364.06 510.639 365.212 511.065C366.406 511.492 367.708 511.919 369.116 512.345C371.377 513.113 373.446 514.031 375.324 515.097C377.244 516.121 378.78 517.487 379.932 519.193C381.126 520.857 381.724 523.076 381.724 525.849C381.724 528.281 381.084 530.521 379.804 532.569C378.566 534.617 376.753 536.26 374.364 537.497C372.017 538.735 369.094 539.353 365.596 539.353ZM408.534 538.585L396.95 493.785H407.19L414.422 527.833L423.126 493.785H433.75L442.134 527.769L449.43 493.785H459.798L447.83 538.585H436.31L428.31 507.289L420.054 538.585H408.534ZM491.875 538.585V493.785H501.475V538.585H491.875ZM463.779 538.585V493.785H473.379V538.585H463.779ZM472.163 519.577V511.833H493.411V519.577H472.163ZM505.101 538.585L521.421 493.785H532.429L548.749 538.585H538.573L526.861 504.601L515.149 538.585H505.101ZM512.205 528.793L514.765 521.369H538.253L540.749 528.793H512.205ZM558.12 538.585V501.529H545.128V493.785H580.712V501.529H567.72V538.585H558.12ZM196.259 621.585V576.785H207.779L220.835 603.729L233.763 576.785H245.219V621.585H235.619V592.977L224.611 615.313H216.931L205.859 592.977V621.585H196.259ZM248.894 621.585L265.214 576.785H276.222L292.542 621.585H282.366L270.654 587.601L258.942 621.585H248.894ZM255.998 611.793L258.558 604.369H282.046L284.542 611.793H255.998ZM301.912 621.585V584.529H288.92V576.785H324.504V584.529H311.512V621.585H301.912ZM338.93 621.585V584.529H325.938V576.785H361.522V584.529H348.53V621.585H338.93ZM365.579 621.585V576.785H395.595V584.529H375.179V595.089H393.675V602.513H375.179V613.841H395.595V621.585H365.579ZM401.284 621.585V576.785H418.692C422.319 576.785 425.327 577.425 427.716 578.705C430.148 579.943 431.94 581.607 433.092 583.697C434.287 585.788 434.884 588.113 434.884 590.673C434.884 593.063 434.308 595.303 433.156 597.393C432.047 599.484 430.298 601.169 427.908 602.449C425.519 603.729 422.426 604.369 418.628 604.369H410.884V621.585H401.284ZM424.388 621.585L415.364 602.001H425.668L435.268 621.585H424.388ZM410.884 597.457H418.116C420.506 597.457 422.255 596.881 423.364 595.729C424.516 594.577 425.092 593.02 425.092 591.057C425.092 589.137 424.516 587.623 423.364 586.513C422.255 585.361 420.506 584.785 418.116 584.785H410.884V597.457ZM456.108 622.353C452.908 622.353 450.007 621.82 447.404 620.753C444.844 619.644 442.818 618.023 441.324 615.889C439.831 613.756 439.02 611.132 438.892 608.017H449.132C449.175 609.255 449.495 610.343 450.092 611.281C450.69 612.22 451.5 612.967 452.524 613.521C453.548 614.033 454.743 614.289 456.108 614.289C457.26 614.289 458.263 614.119 459.116 613.777C460.012 613.393 460.716 612.86 461.228 612.177C461.74 611.452 461.996 610.556 461.996 609.489C461.996 608.38 461.698 607.441 461.1 606.673C460.503 605.863 459.692 605.18 458.668 604.625C457.644 604.028 456.45 603.495 455.084 603.025C453.762 602.513 452.332 602.023 450.796 601.553C447.255 600.401 444.524 598.844 442.604 596.881C440.727 594.919 439.788 592.295 439.788 589.009C439.788 586.279 440.45 583.953 441.772 582.033C443.138 580.071 444.994 578.577 447.34 577.553C449.687 576.529 452.354 576.017 455.34 576.017C458.412 576.017 461.122 576.551 463.468 577.617C465.815 578.641 467.671 580.156 469.036 582.161C470.402 584.124 471.127 586.471 471.212 589.201H460.908C460.866 588.263 460.588 587.409 460.076 586.641C459.607 585.873 458.946 585.255 458.092 584.785C457.282 584.316 456.322 584.081 455.212 584.081C454.231 584.039 453.335 584.188 452.524 584.529C451.756 584.828 451.116 585.319 450.604 586.001C450.135 586.641 449.9 587.452 449.9 588.433C449.9 589.372 450.135 590.204 450.604 590.929C451.116 591.612 451.799 592.209 452.652 592.721C453.548 593.191 454.572 593.639 455.724 594.065C456.919 594.492 458.22 594.919 459.628 595.345C461.89 596.113 463.959 597.031 465.836 598.097C467.756 599.121 469.292 600.487 470.444 602.193C471.639 603.857 472.236 606.076 472.236 608.849C472.236 611.281 471.596 613.521 470.316 615.569C469.079 617.617 467.266 619.26 464.876 620.497C462.53 621.735 459.607 622.353 456.108 622.353ZM481.921 621.905C480.172 621.905 478.743 621.393 477.633 620.369C476.567 619.303 476.033 618.023 476.033 616.529C476.033 614.993 476.567 613.713 477.633 612.689C478.743 611.623 480.172 611.089 481.921 611.089C483.628 611.089 485.015 611.623 486.081 612.689C487.148 613.713 487.681 614.993 487.681 616.529C487.681 618.023 487.148 619.303 486.081 620.369C485.015 621.393 483.628 621.905 481.921 621.905Z" fill="#FAFAFA"/>
</svg>
