<svg width="682" height="1117" viewBox="0 0 682 1117" fill="none" xmlns="http://www.w3.org/2000/svg">
<rect x="0.377319" width="681.623" height="1117" fill="#4846DC"/>
<g opacity="0.1">
<path d="M123.648 438.096L1.25964 484.436V253.477L282.399 20.6158H681.821V249.382H556.772V147.872H325.799L123.648 308.907V438.096Z" fill="white"/>
<path d="M559.783 682.899L681.82 630.678V855.849L391.359 1096.38H3.83881V867.618H125.162V969.128H349.253L559.783 796.266V682.899Z" fill="white"/>
<path d="M1.25964 472.736L339.034 339.083L682 471.356V642.674L339.034 791.072L1.25964 644.054V472.736Z" fill="white"/>
<path d="M124.287 536.487L339.362 451.378L558.796 539.36V591.826L339.362 685.668L124.287 591.826V536.487Z" fill="#4846DC"/>
<path d="M425.979 512.789C425.979 524.459 424.862 531.844 420.379 542.625C415.896 553.407 409.325 563.203 401.041 571.455C392.757 579.707 382.923 586.253 372.1 590.718C361.277 595.184 349.677 597.483 337.962 597.483C326.247 597.483 314.647 595.184 303.823 590.718C293 586.253 283.166 579.707 274.882 571.455C266.599 563.203 260.028 553.407 255.545 542.625C251.061 531.844 250.371 524.459 250.371 512.789L337.962 479.091L425.979 512.789Z" fill="white"/>
</g>
<path d="M96.7604 565.315L85.1764 520.515H95.4164L102.648 554.563L111.352 520.515H121.976L130.36 554.499L137.656 520.515H148.024L136.056 565.315H124.536L116.536 534.019L108.28 565.315H96.7604ZM152.005 565.315V520.515H182.021V528.259H161.605V538.819H180.101V546.243H161.605V557.571H182.021V565.315H152.005ZM187.71 565.315V520.515H197.31V557.891H216.638V565.315H187.71ZM238.516 566.083C234.036 566.083 230.175 565.123 226.932 563.203C223.689 561.24 221.193 558.531 219.444 555.075C217.695 551.576 216.82 547.565 216.82 543.043C216.82 538.435 217.695 534.403 219.444 530.947C221.193 527.448 223.689 524.717 226.932 522.755C230.175 520.749 234.036 519.747 238.516 519.747C244.063 519.747 248.585 521.133 252.084 523.907C255.625 526.68 257.823 530.584 258.676 535.619H248.18C247.668 533.357 246.58 531.608 244.916 530.371C243.252 529.091 241.097 528.451 238.452 528.451C235.935 528.451 233.78 529.048 231.988 530.243C230.239 531.437 228.895 533.123 227.956 535.299C227.06 537.432 226.612 540.013 226.612 543.043C226.612 545.987 227.06 548.547 227.956 550.723C228.895 552.856 230.239 554.52 231.988 555.715C233.78 556.867 235.935 557.443 238.452 557.443C241.097 557.443 243.231 556.888 244.852 555.779C246.516 554.627 247.625 552.984 248.18 550.851H258.676C257.823 555.587 255.625 559.32 252.084 562.051C248.585 564.739 244.063 566.083 238.516 566.083ZM284.797 566.083C280.402 566.083 276.541 565.101 273.213 563.139C269.885 561.176 267.261 558.467 265.341 555.011C263.464 551.512 262.525 547.48 262.525 542.915C262.525 538.349 263.464 534.339 265.341 530.883C267.261 527.384 269.885 524.653 273.213 522.691C276.541 520.728 280.402 519.747 284.797 519.747C289.192 519.747 293.074 520.728 296.445 522.691C299.816 524.653 302.418 527.384 304.253 530.883C306.13 534.339 307.069 538.349 307.069 542.915C307.069 547.48 306.13 551.512 304.253 555.011C302.418 558.467 299.816 561.176 296.445 563.139C293.074 565.101 289.192 566.083 284.797 566.083ZM284.797 557.443C287.4 557.443 289.618 556.845 291.453 555.651C293.33 554.456 294.781 552.792 295.805 550.659C296.829 548.483 297.341 545.901 297.341 542.915C297.341 539.928 296.829 537.368 295.805 535.235C294.781 533.059 293.33 531.395 291.453 530.243C289.618 529.048 287.4 528.451 284.797 528.451C282.28 528.451 280.082 529.048 278.205 530.243C276.328 531.395 274.877 533.059 273.853 535.235C272.829 537.368 272.317 539.928 272.317 542.915C272.317 545.901 272.829 548.483 273.853 550.659C274.877 552.792 276.328 554.456 278.205 555.651C280.082 556.845 282.28 557.443 284.797 557.443ZM312.325 565.315V520.515H323.845L336.901 547.459L349.829 520.515H361.285V565.315H351.685V536.707L340.677 559.043H332.997L321.925 536.707V565.315H312.325ZM367.968 565.315V520.515H397.984V528.259H377.568V538.819H396.064V546.243H377.568V557.571H397.984V565.315H367.968ZM416.19 565.315V520.515H435.326C438.441 520.515 441.065 521.005 443.198 521.987C445.332 522.925 446.953 524.269 448.062 526.019C449.214 527.725 449.79 529.752 449.79 532.099C449.79 534.36 449.3 536.259 448.318 537.795C447.337 539.331 446.036 540.504 444.414 541.315C442.836 542.125 441.086 542.616 439.166 542.787L440.19 542.019C442.281 542.104 444.116 542.659 445.694 543.683C447.273 544.707 448.51 546.051 449.406 547.715C450.345 549.336 450.814 551.128 450.814 553.091C450.814 555.523 450.238 557.656 449.086 559.491C447.934 561.325 446.249 562.755 444.03 563.779C441.812 564.803 439.124 565.315 435.966 565.315H416.19ZM425.79 557.507H434.366C436.5 557.507 438.142 557.037 439.294 556.099C440.489 555.117 441.086 553.709 441.086 551.875C441.086 550.04 440.468 548.611 439.23 547.587C438.036 546.563 436.372 546.051 434.238 546.051H425.79V557.507ZM425.79 538.947H433.662C435.71 538.947 437.268 538.477 438.334 537.539C439.444 536.6 439.998 535.277 439.998 533.571C439.998 531.864 439.444 530.541 438.334 529.603C437.268 528.621 435.689 528.131 433.598 528.131H425.79V538.947ZM452.575 565.315L468.895 520.515H479.903L496.223 565.315H486.047L474.335 531.331L462.623 565.315H452.575ZM459.679 555.523L462.239 548.099H485.727L488.223 555.523H459.679ZM517.576 566.083C513.096 566.083 509.235 565.123 505.992 563.203C502.749 561.24 500.253 558.531 498.504 555.075C496.755 551.576 495.88 547.565 495.88 543.043C495.88 538.435 496.755 534.403 498.504 530.947C500.253 527.448 502.749 524.717 505.992 522.755C509.235 520.749 513.096 519.747 517.576 519.747C523.123 519.747 527.645 521.133 531.144 523.907C534.685 526.68 536.883 530.584 537.736 535.619H527.24C526.728 533.357 525.64 531.608 523.976 530.371C522.312 529.091 520.157 528.451 517.512 528.451C514.995 528.451 512.84 529.048 511.048 530.243C509.299 531.437 507.955 533.123 507.016 535.299C506.12 537.432 505.672 540.013 505.672 543.043C505.672 545.987 506.12 548.547 507.016 550.723C507.955 552.856 509.299 554.52 511.048 555.715C512.84 556.867 514.995 557.443 517.512 557.443C520.157 557.443 522.291 556.888 523.912 555.779C525.576 554.627 526.685 552.984 527.24 550.851H537.736C536.883 555.587 534.685 559.32 531.144 562.051C527.645 564.739 523.123 566.083 517.576 566.083ZM542.993 565.315V520.515H552.593V537.475L568.081 520.515H579.857L563.409 538.243L580.433 565.315H568.657L556.561 545.667L552.593 549.955V565.315H542.993ZM586.31 550.211L585.222 520.515H595.526L594.438 550.211H586.31ZM590.406 565.635C588.657 565.635 587.227 565.123 586.118 564.099C585.051 563.032 584.518 561.752 584.518 560.259C584.518 558.723 585.051 557.443 586.118 556.419C587.227 555.352 588.657 554.819 590.406 554.819C592.113 554.819 593.499 555.352 594.566 556.419C595.633 557.443 596.166 558.723 596.166 560.259C596.166 561.752 595.633 563.032 594.566 564.099C593.499 565.123 592.113 565.635 590.406 565.635ZM134.844 607.315L143.004 584.915H148.508L156.668 607.315H151.58L145.724 590.323L139.868 607.315H134.844ZM138.396 602.419L139.676 598.707H151.42L152.668 602.419H138.396ZM159.442 607.315V584.915H167.218C169.821 584.915 171.965 585.384 173.65 586.323C175.357 587.24 176.615 588.541 177.426 590.227C178.258 591.891 178.674 593.853 178.674 596.115C178.674 598.355 178.258 600.317 177.426 602.003C176.615 603.667 175.357 604.968 173.65 605.907C171.965 606.845 169.821 607.315 167.218 607.315H159.442ZM164.242 603.187H166.93C168.658 603.187 170.023 602.909 171.026 602.355C172.029 601.779 172.733 600.968 173.138 599.923C173.565 598.856 173.778 597.587 173.778 596.115C173.778 594.621 173.565 593.352 173.138 592.307C172.733 591.24 172.029 590.429 171.026 589.875C170.023 589.299 168.658 589.011 166.93 589.011H164.242V603.187ZM182.255 607.315V584.915H190.031C192.633 584.915 194.777 585.384 196.463 586.323C198.169 587.24 199.428 588.541 200.239 590.227C201.071 591.891 201.487 593.853 201.487 596.115C201.487 598.355 201.071 600.317 200.239 602.003C199.428 603.667 198.169 604.968 196.463 605.907C194.777 606.845 192.633 607.315 190.031 607.315H182.255ZM187.055 603.187H189.743C191.471 603.187 192.836 602.909 193.839 602.355C194.841 601.779 195.545 600.968 195.951 599.923C196.377 598.856 196.591 597.587 196.591 596.115C196.591 594.621 196.377 593.352 195.951 592.307C195.545 591.24 194.841 590.429 193.839 589.875C192.836 589.299 191.471 589.011 189.743 589.011H187.055V603.187ZM205.067 607.315V584.915H213.771C215.584 584.915 217.088 585.235 218.283 585.875C219.499 586.493 220.395 587.325 220.971 588.371C221.568 589.416 221.867 590.579 221.867 591.859C221.867 593.053 221.579 594.173 221.003 595.219C220.448 596.264 219.574 597.107 218.379 597.747C217.184 598.387 215.638 598.707 213.739 598.707H209.867V607.315H205.067ZM216.619 607.315L212.107 597.523H217.259L222.059 607.315H216.619ZM209.867 595.251H213.483C214.678 595.251 215.552 594.963 216.107 594.387C216.683 593.811 216.971 593.032 216.971 592.051C216.971 591.091 216.683 590.333 216.107 589.779C215.552 589.203 214.678 588.915 213.483 588.915H209.867V595.251ZM225.567 607.315V584.915H240.575V588.787H230.367V594.067H239.615V597.779H230.367V603.443H240.575V607.315H225.567ZM252.252 607.699C250.652 607.699 249.201 607.432 247.9 606.899C246.62 606.344 245.606 605.533 244.86 604.467C244.113 603.4 243.708 602.088 243.644 600.531H248.764C248.785 601.149 248.945 601.693 249.244 602.163C249.542 602.632 249.948 603.005 250.46 603.283C250.972 603.539 251.569 603.667 252.252 603.667C252.828 603.667 253.329 603.581 253.756 603.411C254.204 603.219 254.556 602.952 254.812 602.611C255.068 602.248 255.196 601.8 255.196 601.267C255.196 600.712 255.046 600.243 254.748 599.859C254.449 599.453 254.044 599.112 253.532 598.835C253.02 598.536 252.422 598.269 251.74 598.035C251.078 597.779 250.364 597.533 249.596 597.299C247.825 596.723 246.46 595.944 245.5 594.963C244.561 593.981 244.092 592.669 244.092 591.027C244.092 589.661 244.422 588.499 245.084 587.539C245.766 586.557 246.694 585.811 247.868 585.299C249.041 584.787 250.374 584.531 251.868 584.531C253.404 584.531 254.758 584.797 255.932 585.331C257.105 585.843 258.033 586.6 258.716 587.603C259.398 588.584 259.761 589.757 259.804 591.123H254.652C254.63 590.653 254.492 590.227 254.236 589.843C254.001 589.459 253.67 589.149 253.244 588.915C252.838 588.68 252.358 588.563 251.804 588.563C251.313 588.541 250.865 588.616 250.46 588.787C250.076 588.936 249.756 589.181 249.5 589.523C249.265 589.843 249.148 590.248 249.148 590.739C249.148 591.208 249.265 591.624 249.5 591.987C249.756 592.328 250.097 592.627 250.524 592.883C250.972 593.117 251.484 593.341 252.06 593.555C252.657 593.768 253.308 593.981 254.012 594.195C255.142 594.579 256.177 595.037 257.116 595.571C258.076 596.083 258.844 596.765 259.42 597.619C260.017 598.451 260.316 599.56 260.316 600.947C260.316 602.163 259.996 603.283 259.356 604.307C258.737 605.331 257.83 606.152 256.636 606.771C255.462 607.389 254.001 607.699 252.252 607.699ZM271.814 607.699C270.214 607.699 268.763 607.432 267.462 606.899C266.182 606.344 265.169 605.533 264.422 604.467C263.675 603.4 263.27 602.088 263.206 600.531H268.326C268.347 601.149 268.507 601.693 268.806 602.163C269.105 602.632 269.51 603.005 270.022 603.283C270.534 603.539 271.131 603.667 271.814 603.667C272.39 603.667 272.891 603.581 273.318 603.411C273.766 603.219 274.118 602.952 274.374 602.611C274.63 602.248 274.758 601.8 274.758 601.267C274.758 600.712 274.609 600.243 274.31 599.859C274.011 599.453 273.606 599.112 273.094 598.835C272.582 598.536 271.985 598.269 271.302 598.035C270.641 597.779 269.926 597.533 269.158 597.299C267.387 596.723 266.022 595.944 265.062 594.963C264.123 593.981 263.654 592.669 263.654 591.027C263.654 589.661 263.985 588.499 264.646 587.539C265.329 586.557 266.257 585.811 267.43 585.299C268.603 584.787 269.937 584.531 271.43 584.531C272.966 584.531 274.321 584.797 275.494 585.331C276.667 585.843 277.595 586.6 278.278 587.603C278.961 588.584 279.323 589.757 279.366 591.123H274.214C274.193 590.653 274.054 590.227 273.798 589.843C273.563 589.459 273.233 589.149 272.806 588.915C272.401 588.68 271.921 588.563 271.366 588.563C270.875 588.541 270.427 588.616 270.022 588.787C269.638 588.936 269.318 589.181 269.062 589.523C268.827 589.843 268.71 590.248 268.71 590.739C268.71 591.208 268.827 591.624 269.062 591.987C269.318 592.328 269.659 592.627 270.086 592.883C270.534 593.117 271.046 593.341 271.622 593.555C272.219 593.768 272.87 593.981 273.574 594.195C274.705 594.579 275.739 595.037 276.678 595.571C277.638 596.083 278.406 596.765 278.982 597.619C279.579 598.451 279.878 599.56 279.878 600.947C279.878 602.163 279.558 603.283 278.918 604.307C278.299 605.331 277.393 606.152 276.198 606.771C275.025 607.389 273.563 607.699 271.814 607.699ZM295.203 607.315L289.411 584.915H294.531L298.147 601.939L302.499 584.915H307.811L312.003 601.907L315.651 584.915H320.835L314.851 607.315H309.091L305.091 591.667L300.963 607.315H295.203ZM337.834 607.315V584.915H342.634V607.315H337.834ZM323.786 607.315V584.915H328.586V607.315H323.786ZM327.978 597.811V593.939H338.602V597.811H327.978ZM345.407 607.315L353.567 584.915H359.071L367.231 607.315H362.143L356.287 590.323L350.431 607.315H345.407ZM348.959 602.419L350.239 598.707H361.983L363.231 602.419H348.959ZM372.876 607.315V588.787H366.38V584.915H384.172V588.787H377.676V607.315H372.876ZM394.38 607.315V584.915H400.14L406.668 598.387L413.132 584.915H418.86V607.315H414.06V593.011L408.556 604.179H404.716L399.18 593.011V607.315H394.38ZM421.657 607.315L429.817 584.915H435.321L443.481 607.315H438.393L432.537 590.323L426.681 607.315H421.657ZM425.209 602.419L426.489 598.707H438.233L439.481 602.419H425.209ZM449.126 607.315V588.787H442.63V584.915H460.422V588.787H453.926V607.315H449.126ZM468.595 607.315V588.787H462.099V584.915H479.891V588.787H473.395V607.315H468.595ZM482.88 607.315V584.915H497.888V588.787H487.68V594.067H496.928V597.779H487.68V603.443H497.888V607.315H482.88ZM501.692 607.315V584.915H510.396C512.209 584.915 513.713 585.235 514.908 585.875C516.124 586.493 517.02 587.325 517.596 588.371C518.193 589.416 518.492 590.579 518.492 591.859C518.492 593.053 518.204 594.173 517.628 595.219C517.073 596.264 516.199 597.107 515.004 597.747C513.809 598.387 512.263 598.707 510.364 598.707H506.492V607.315H501.692ZM513.244 607.315L508.732 597.523H513.884L518.684 607.315H513.244ZM506.492 595.251H510.108C511.303 595.251 512.177 594.963 512.732 594.387C513.308 593.811 513.596 593.032 513.596 592.051C513.596 591.091 513.308 590.333 512.732 589.779C512.177 589.203 511.303 588.915 510.108 588.915H506.492V595.251ZM530.064 607.699C528.464 607.699 527.013 607.432 525.712 606.899C524.432 606.344 523.419 605.533 522.672 604.467C521.925 603.4 521.52 602.088 521.456 600.531H526.576C526.597 601.149 526.757 601.693 527.056 602.163C527.355 602.632 527.76 603.005 528.272 603.283C528.784 603.539 529.381 603.667 530.064 603.667C530.64 603.667 531.141 603.581 531.568 603.411C532.016 603.219 532.368 602.952 532.624 602.611C532.88 602.248 533.008 601.8 533.008 601.267C533.008 600.712 532.859 600.243 532.56 599.859C532.261 599.453 531.856 599.112 531.344 598.835C530.832 598.536 530.235 598.269 529.552 598.035C528.891 597.779 528.176 597.533 527.408 597.299C525.637 596.723 524.272 595.944 523.312 594.963C522.373 593.981 521.904 592.669 521.904 591.027C521.904 589.661 522.235 588.499 522.896 587.539C523.579 586.557 524.507 585.811 525.68 585.299C526.853 584.787 528.187 584.531 529.68 584.531C531.216 584.531 532.571 584.797 533.744 585.331C534.917 585.843 535.845 586.6 536.528 587.603C537.211 588.584 537.573 589.757 537.616 591.123H532.464C532.443 590.653 532.304 590.227 532.048 589.843C531.813 589.459 531.483 589.149 531.056 588.915C530.651 588.68 530.171 588.563 529.616 588.563C529.125 588.541 528.677 588.616 528.272 588.787C527.888 588.936 527.568 589.181 527.312 589.523C527.077 589.843 526.96 590.248 526.96 590.739C526.96 591.208 527.077 591.624 527.312 591.987C527.568 592.328 527.909 592.627 528.336 592.883C528.784 593.117 529.296 593.341 529.872 593.555C530.469 593.768 531.12 593.981 531.824 594.195C532.955 594.579 533.989 595.037 534.928 595.571C535.888 596.083 536.656 596.765 537.232 597.619C537.829 598.451 538.128 599.56 538.128 600.947C538.128 602.163 537.808 603.283 537.168 604.307C536.549 605.331 535.643 606.152 534.448 606.771C533.275 607.389 531.813 607.699 530.064 607.699ZM543.931 607.475C543.056 607.475 542.341 607.219 541.787 606.707C541.253 606.173 540.987 605.533 540.987 604.787C540.987 604.019 541.253 603.379 541.787 602.867C542.341 602.333 543.056 602.067 543.931 602.067C544.784 602.067 545.477 602.333 546.011 602.867C546.544 603.379 546.811 604.019 546.811 604.787C546.811 605.533 546.544 606.173 546.011 606.707C545.477 607.219 544.784 607.475 543.931 607.475Z" fill="#FAFAFA"/>
</svg>
